# xmcd
#
# Track frame offsets:
#       150
#       15645
#       32079
#       47060
#       66578
#       88868
#       106948
#       121771
#       138798
#       157569
#       174487
#       190334
#       208945
#       226448
#       243546
#       258527
#       280630
#       296239
#       312344
#       327012
#
# Disc length: 4535 seconds
#
# Revision: 0
# Processed by: cddbd v1.5.2PL0 Copyright (c) Steve Scherf et al.
# Submitted via: WhereIsIt 3.81
#
DISCID=1e11b514
DTITLE=Fan-Hits - Fan-Hits
DYEAR=1900
DGENRE=
TTITLE0=HI-Q - Tu esti dragostea mea
TTITLE1=Andre - Nu te voi ierta
TTITLE2=Candy - O seara perfecta
TTITLE3=Blondy - Ai gresit
TTITLE4=Pepe - Strigat
TTITLE5=RO-Mania - Au, inima, au
TTITLE6=Body and Soul - Departe
TTITLE7=Giglio - Prima dragoste
TTITLE8=Stigma - Jumatate tu, jumatate eu
TTITLE9=Impact - Te iubesc
TTITLE10=N&D - Pentru tine
TTITLE11=Blondy - Numele tau
TTITLE12=Non Stop - Esti ingerul meu
TTITLE13=Valahia - Iubito, nu plange (Moga mix)
TTITLE14=Demmo - Pe tine te vreau
TTITLE15=Pepe - Langa tine
TTITLE16=Bere Gratis - Vino mai aproape
TTITLE17=Rafael - Zilele (unplugged version)
TTITLE18=Andre - Nu ma iubi
TTITLE19=HI-Q - Tu esti dragostea mea - radio edit
EXTD=
EXTT0=
EXTT1=
EXTT2=
EXTT3=
EXTT4=
EXTT5=
EXTT6=
EXTT7=
EXTT8=
EXTT9=
EXTT10=
EXTT11=
EXTT12=
EXTT13=
EXTT14=
EXTT15=
EXTT16=
EXTT17=
EXTT18=
EXTT19=
PLAYORDER=
